<svg version="1.2" xmlns="http://www.w3.org/2000/svg" viewBox="0 0 100 100" width="100" height="100">
	<title>vecteezy_web-icon-vector-line-on-white-background-image-for-web_3731316-ai</title>
	<style>
		.s0 { fill: #ffffff } 
		.s1 { fill: #231f20 } 
	</style>
	<g id="Layer 1">
		<path id="Layer 2" class="s0" d="m50.1 95.2c-24.9 0-45.1-20.1-45.1-45.1 0-24.9 20.2-45.1 45.1-45.1 25 0 45.2 20.2 45.2 45.1 0 25-20.2 45.1-45.2 45.1z"/>
		<path id="&lt;Compound Path&gt;" fill-rule="evenodd" class="s1" d="m89.1 63.2c-1.2 3.4-2.8 6.6-4.8 9.6h0.1l-1.2 1.7q-0.1 0-0.1 0.1-0.2 0.2-0.3 0.3 0 0.1 0 0.1-0.2 0.2-0.3 0.4-0.1 0-0.1 0-0.1 0.2-0.3 0.5 0 0 0 0-0.2 0.2-0.4 0.4 0 0 0 0-0.2 0.3-0.4 0.5 0 0 0 0-0.2 0.2-0.4 0.4 0 0 0 0.1-0.2 0.2-0.3 0.4-0.1 0-0.1 0-0.2 0.2-0.3 0.4-0.1 0-0.1 0-0.2 0.2-0.3 0.4-0.1 0-0.1 0.1-0.2 0.2-0.4 0.3 0 0.1 0 0.1-0.2 0.2-0.4 0.4 0 0 0 0-0.2 0.2-0.4 0.4 0 0-0.1 0-0.1 0.2-0.3 0.4-0.1 0-0.1 0-0.2 0.2-0.4 0.4 0 0 0 0-0.2 0.2-0.4 0.4 0 0-0.1 0-0.2 0.2-0.3 0.3 0 0 0 0 0 0 0 0-0.1 0.1-0.1 0.1-0.2 0.2-0.4 0.3-0.1 0.1-0.1 0.1-0.2 0.2-0.3 0.3-0.1 0-0.2 0.1-0.1 0.1-0.3 0.3-0.1 0-0.2 0.1-0.1 0.1-0.3 0.2-0.1 0.1-0.1 0.1-0.2 0.2-0.3 0.3-0.1 0-0.2 0.1-0.2 0.1-0.3 0.2-0.1 0.1-0.2 0.1-0.2 0.2-0.3 0.3-0.1 0-0.2 0.1-0.1 0.1-0.3 0.2-0.1 0.1-0.2 0.1-0.1 0.1-0.3 0.2-0.1 0.1-0.2 0.1-0.1 0.1-0.3 0.2-0.1 0.1-0.2 0.2-0.1 0.1-0.3 0.1-0.1 0.1-0.2 0.2-0.1 0.1-0.3 0.2-0.1 0-0.2 0.1-0.2 0.1-0.3 0.1-0.1 0.1-0.2 0.2-0.2 0.1-0.3 0.1-0.1 0.1-0.3 0.2-0.1 0-0.2 0.1-0.2 0.1-0.3 0.2-0.1 0-0.2 0.1 0 0-0.1 0 0 0 0 0 0 0-0.1 0.1-0.1 0-0.1 0-0.1 0.1-0.2 0.1 0 0-0.1 0.1-0.1 0-0.1 0-0.1 0.1-0.1 0.1-0.1 0-0.2 0.1-0.1 0-0.1 0-0.1 0.1-0.2 0.1 0 0-0.1 0.1-0.1 0-0.2 0 0 0.1-0.1 0.1 0 0-0.1 0.1-0.1 0-0.1 0-0.1 0-0.2 0.1-0.1 0-0.1 0-0.1 0.1-0.2 0.1 0 0-0.1 0-0.1 0.1-0.2 0.1 0 0-0.1 0.1 0 0-0.1 0-0.1 0.1-0.1 0.1-0.1 0-0.2 0.1-0.1 0-0.1 0-0.1 0-0.2 0.1 0 0-0.1 0-0.1 0-0.2 0.1 0 0-0.1 0-0.1 0.1-0.2 0.1 0 0 0 0-0.1 0.1-0.2 0.1-0.1 0-0.1 0-0.1 0.1-0.2 0.1-0.1 0-0.1 0-0.1 0.1-0.2 0.1 0 0-0.1 0-0.1 0.1-0.2 0.1 0 0-0.1 0-0.1 0.1-0.2 0.1 0 0 0 0-0.2 0.1-0.3 0.1 0 0 0 0-0.1 0.1-0.2 0.1-0.1 0-0.1 0-0.1 0.1-0.2 0.1-0.1 0-0.1 0-0.1 0.1-0.2 0.1-0.1 0-0.1 0-0.1 0-0.2 0.1 0 0-0.1 0-0.1 0-0.2 0.1 0 0-0.1 0-0.1 0-0.2 0.1 0 0 0 0-0.2 0-0.3 0 0 0 0 0-0.2 0.1-0.3 0.1 0 0 0 0-0.1 0.1-0.3 0.1 0 0 0 0-0.1 0-0.3 0.1 0 0 0 0-0.1 0-0.3 0 0 0 0 0 0 0 0 0 0 0.1 0 0.1-0.2 0-0.3 0 0 0 0 0-0.1 0.1-0.3 0.1 0 0 0 0-0.1 0-0.3 0.1 0 0 0 0c-2.9 0.6-5.9 0.9-9 0.9-3 0-6-0.3-8.9-0.9q-0.1 0-0.1 0-0.1-0.1-0.2-0.1-0.1 0-0.1 0-0.1 0-0.2-0.1-0.1 0-0.1 0-0.1 0-0.2 0 0 0 0-0.1 0 0 0 0-0.1 0-0.1 0-0.1 0-0.2 0 0 0-0.1 0-0.1-0.1-0.2-0.1 0 0-0.1 0-0.1 0-0.2-0.1 0 0 0 0-0.2 0-0.3-0.1 0 0 0 0-0.2 0-0.3 0 0 0 0 0-0.2-0.1-0.3-0.1 0 0 0 0-0.1-0.1-0.3-0.1 0 0 0 0-0.1-0.1-0.2-0.1-0.1 0-0.1 0-0.1 0-0.2-0.1-0.1 0-0.1 0-0.1 0-0.2-0.1 0 0-0.1 0-0.1 0-0.2-0.1 0 0-0.1 0-0.1 0-0.2-0.1 0 0 0 0-0.2 0-0.3-0.1 0 0 0 0-0.1 0-0.2-0.1-0.1 0-0.1 0-0.1 0-0.2-0.1-0.1 0-0.1 0-0.1 0-0.2-0.1 0 0-0.1 0-0.1 0-0.2-0.1 0 0-0.1 0-0.1 0-0.2-0.1 0 0 0 0-0.1-0.1-0.2-0.1-0.1 0-0.1 0-0.1-0.1-0.2-0.1-0.1 0-0.1 0-0.1-0.1-0.2-0.1 0 0-0.1-0.1-0.1 0-0.2 0 0-0.1-0.1-0.1-0.1 0-0.1-0.1-0.1 0-0.1 0-0.1 0-0.2-0.1-0.1 0-0.1 0-0.1-0.1-0.2-0.1 0 0-0.1 0-0.1-0.1-0.2-0.1 0 0-0.1-0.1-0.1 0-0.1 0-0.1-0.1-0.1-0.1-0.1 0-0.2-0.1-0.1 0-0.1 0-0.1-0.1-0.2-0.1 0 0-0.1-0.1-0.1 0-0.1 0-0.1-0.1-0.2-0.1 0 0-0.1-0.1-0.1 0-0.1 0-0.1-0.1-0.2-0.1 0 0 0 0 0 0 0 0-0.1-0.1-0.2-0.2-0.2 0-0.3-0.1-0.1-0.1-0.3-0.1-0.1-0.1-0.2-0.2-0.1 0-0.3-0.1-0.1-0.1-0.2-0.2-0.2 0-0.3-0.1-0.1-0.1-0.2-0.1-0.2-0.1-0.3-0.2-0.1-0.1-0.2-0.2-0.2 0-0.3-0.1-0.1-0.1-0.2-0.2-0.2-0.1-0.3-0.2-0.1 0-0.2-0.1-0.2-0.1-0.3-0.2-0.1 0-0.2-0.1-0.2-0.1-0.3-0.2-0.1-0.1-0.2-0.1-0.2-0.1-0.3-0.3-0.1 0-0.2-0.1-0.2-0.1-0.3-0.2-0.1-0.1-0.2-0.1-0.1-0.1-0.3-0.3-0.1 0-0.1-0.1-0.2-0.1-0.4-0.2 0-0.1-0.1-0.1-0.2-0.2-0.4-0.3 0-0.1-0.1-0.1-0.2-0.1-0.3-0.3-0.1 0-0.1-0.1-0.2-0.1-0.4-0.3 0 0-0.1-0.1 0 0 0 0 0 0 0 0-0.2-0.1-0.3-0.3-0.1 0-0.1 0-0.2-0.2-0.4-0.4 0 0-0.1 0-0.1-0.2-0.3-0.4-0.1 0-0.1 0-0.2-0.2-0.4-0.4 0 0 0 0-0.2-0.2-0.4-0.4 0 0-0.1 0-0.1-0.2-0.3-0.4 0 0-0.1-0.1-0.1-0.1-0.3-0.3 0 0-0.1-0.1-0.1-0.2-0.3-0.3-0.1-0.1-0.1-0.1-0.2-0.2-0.3-0.4-0.1 0-0.1 0-0.1-0.2-0.3-0.4 0-0.1-0.1-0.1-0.1-0.2-0.3-0.4 0 0-0.1 0-0.1-0.2-0.3-0.4 0 0 0-0.1-0.2-0.2-0.4-0.4 0 0 0 0-0.2-0.2-0.3-0.4 0-0.1-0.1-0.1-0.1-0.2-0.3-0.4 0 0 0-0.1-0.2-0.1-0.3-0.3 0 0-0.1-0.1l-1.2-1.7h0.1c-2-3-3.6-6.2-4.8-9.6-1.4-4.2-2.1-8.6-2.1-13.1q0-0.1 0-0.2c0-4.4 0.8-8.8 2.2-13 1.1-3.4 2.7-6.6 4.7-9.6h-0.1l1.3-1.6c1.8-2.5 4-4.8 6.3-6.8 2.4-2.1 5.1-3.8 7.8-5.3 2.9-1.4 5.9-2.6 9-3.3q0.9-0.3 1.8-0.4 3.5-0.7 7-0.8 0.4 0 0.9 0 0 0 0 0 0.1 0 0.3 0 0 0 0 0 4 0 7.9 0.8 0 0 0 0 0 0 0 0 0.9 0.2 1.8 0.4 1.2 0.3 2.3 0.6 2.7 0.9 5.3 2.1 0.1 0 0.3 0.1 0.2 0.1 0.5 0.3 0.3 0.1 0.5 0.2c2.8 1.5 5.4 3.2 7.8 5.3 2.4 2 4.6 4.3 6.4 6.8l1.2 1.6c2 3 3.6 6.2 4.7 9.6 1.4 4.2 2.2 8.6 2.2 13q0 0.1 0 0.2c0 4.5-0.7 8.9-2.1 13.1zm-9.9 10.9c-3.3-1.3-7.3-2.4-11.8-3.2-1.5 5.6-3.7 10.3-6.3 13.7q-0.8 1.1-1.7 2 0 0 0.1 0 0.1 0 0.3-0.1 0.1 0 0.2 0 0.2-0.1 0.3-0.1 0.1 0 0.2-0.1 0.2 0 0.3-0.1 0.1 0 0.2 0 0.1-0.1 0.3-0.1 0.1 0 0.2-0.1 0.1 0 0.2 0 0.2-0.1 0.3-0.1 0.1-0.1 0.2-0.1 0.2-0.1 0.3-0.1 0.1 0 0.2-0.1 0.2 0 0.3-0.1 0.1 0 0.2-0.1 0.2 0 0.3-0.1 0.1 0 0.2 0 0.1-0.1 0.3-0.1 0.1-0.1 0.2-0.1 0.1-0.1 0.2-0.1 0.1-0.1 0.2-0.1 0.2-0.1 0.3-0.1 0.1-0.1 0.1-0.1 0.2-0.1 0.4-0.1 0.1-0.1 0.1-0.1 0.2-0.1 0.4-0.2 0 0 0.1 0 0.2-0.1 0.4-0.2 0 0 0.1 0 0.2-0.1 0.3-0.2 0.1-0.1 0.1-0.1 0.2-0.1 0.4-0.2 0.1 0 0.1 0 0.2-0.1 0.4-0.2 0 0 0.1-0.1 0.2-0.1 0.4-0.2 0 0 0.1 0 0.1-0.1 0.2-0.1 0-0.1 0.1-0.1 0.2-0.1 0.4-0.2 0 0 0.1-0.1 0.1-0.1 0.3-0.2 0.1 0 0.1 0 0.2-0.2 0.4-0.3 0 0 0.1 0 0.1-0.1 0.3-0.2 0.1-0.1 0.1-0.1 0.2-0.1 0.3-0.2 0.1-0.1 0.2-0.1 0.1-0.1 0.3-0.2 0-0.1 0.1-0.1 0.1-0.1 0.3-0.2 0.1 0 0.2-0.1 0.1-0.1 0.1-0.1 0.2-0.1 0.3-0.2 0.1-0.1 0.2-0.1 0.1-0.1 0.2-0.2 0.1-0.1 0.2-0.2 0.1 0 0.2-0.1 0.1-0.1 0.2-0.2 0.1-0.1 0.2-0.1 0.1-0.1 0.2-0.2 0.1-0.1 0.2-0.2 0.1 0 0.2-0.1 0.1-0.1 0.2-0.2 0.1-0.1 0.2-0.1 0.1-0.1 0.2-0.2 0.1-0.1 0.1-0.1 0.2-0.2 0.3-0.3 0.1 0 0.1-0.1 0.2-0.1 0.3-0.2 0.1-0.1 0.1-0.1 0.2-0.2 0.3-0.3 0.1-0.1 0.1-0.1 0.2-0.1 0.3-0.3 0 0 0.1-0.1 0.1-0.1 0.3-0.2 0-0.1 0.1-0.1 0.1-0.2 0.3-0.3 0 0 0-0.1 0.2-0.1 0.3-0.3 0 0 0.1 0 0.1-0.2 0.3-0.4 0 0 0 0 0.2-0.2 0.3-0.3 0-0.1 0.1-0.1 0.1-0.2 0.3-0.3 0-0.1 0-0.1 0.2-0.2 0.3-0.3 0-0.1 0.1-0.1 0.1-0.2 0.3-0.3 0 0 0-0.1zm-38.4 12.5q0 0 0.1 0-0.9-0.9-1.7-2c-2.6-3.4-4.8-8.1-6.4-13.7-4.4 0.8-8.4 1.9-11.7 3.2q0 0.1 0 0.1 0.2 0.1 0.3 0.3 0 0 0.1 0.1 0.1 0.1 0.3 0.3 0 0 0 0.1 0.2 0.1 0.3 0.3 0 0 0.1 0.1 0.1 0.1 0.3 0.3 0 0 0 0 0.2 0.2 0.3 0.4 0 0 0.1 0 0.1 0.2 0.3 0.3 0 0.1 0 0.1 0.2 0.1 0.3 0.3 0.1 0 0.1 0.1 0.1 0.1 0.3 0.2 0 0.1 0.1 0.1 0.1 0.2 0.3 0.3 0 0 0.1 0.1 0.1 0.1 0.2 0.3 0.1 0 0.2 0.1 0.1 0.1 0.2 0.2 0.1 0.1 0.1 0.1 0.2 0.1 0.3 0.3 0.1 0 0.1 0.1 0.2 0.1 0.3 0.2 0.1 0 0.2 0.1 0.1 0.1 0.2 0.2 0.1 0.1 0.2 0.1 0.1 0.1 0.2 0.2 0.1 0.1 0.2 0.2 0.1 0 0.2 0.1 0.1 0.1 0.2 0.2 0.1 0.1 0.2 0.1 0.1 0.1 0.2 0.2 0.1 0.1 0.2 0.1 0.1 0.1 0.2 0.2 0.1 0.1 0.2 0.2 0.1 0 0.2 0.1 0.1 0.1 0.2 0.1 0.1 0.1 0.3 0.2 0 0 0.1 0.1 0.2 0.1 0.3 0.2 0.1 0 0.1 0.1 0.2 0.1 0.4 0.2 0 0 0.1 0.1 0.1 0.1 0.3 0.2 0.1 0 0.1 0 0.2 0.2 0.4 0.3 0 0 0.1 0 0.1 0.1 0.3 0.2 0.1 0.1 0.1 0.1 0.2 0.1 0.4 0.2 0.1 0 0.1 0 0.3 0.2 0.7 0.4 0 0.1 0.1 0.1 0.2 0.1 0.4 0.2 0 0 0 0 0.2 0.1 0.4 0.2 0.1 0 0.1 0.1 0.2 0.1 0.4 0.2 0.1 0 0.1 0 0.2 0.1 0.4 0.2 0 0 0.1 0 0.2 0.1 0.4 0.2 0 0 0.1 0.1 0.2 0 0.4 0.1 0 0 0.1 0.1 0.1 0 0.3 0.1 0.1 0 0.2 0.1 0.1 0 0.2 0.1 0.1 0 0.2 0 0.1 0.1 0.3 0.2 0.1 0 0.2 0 0.1 0.1 0.3 0.1 0.1 0.1 0.1 0.1 0.2 0.1 0.4 0.1 0.1 0.1 0.1 0.1 0.2 0 0.4 0.1 0.1 0 0.1 0.1 0.2 0 0.3 0.1 0.1 0 0.3 0 0.1 0.1 0.2 0.1 0.1 0 0.3 0.1 0.1 0 0.2 0 0.1 0.1 0.3 0.1 0.1 0.1 0.2 0.1 0.1 0 0.3 0.1 0.1 0 0.2 0 0.1 0.1 0.3 0.1zm-19.7-60.6c3.3 1.3 7.3 2.4 11.7 3.2 1.6-5.5 3.8-10.2 6.4-13.6q0.8-1.1 1.7-2.1-0.1 0.1-0.1 0.1 0 0 0 0-0.3 0-0.5 0.1 0 0 0 0-0.3 0.1-0.5 0.1 0 0 0 0.1-0.3 0-0.5 0.1 0 0 0 0-0.3 0.1-0.5 0.1 0 0 0 0-0.3 0.1-0.5 0.2 0 0 0 0-0.2 0.1-0.5 0.2 0 0 0 0-0.2 0-0.5 0.1 0 0 0 0-0.2 0.1-0.4 0.2 0 0 0 0-0.3 0.1-0.5 0.2 0 0 0 0-0.2 0.1-0.5 0.2 0 0 0 0-0.2 0.1-0.4 0.2-0.1 0-0.1 0-0.2 0.1-0.4 0.2 0 0-0.1 0-0.2 0.1-0.4 0.2 0 0 0 0-0.2 0.1-0.4 0.2-0.1 0-0.1 0-0.2 0.1-0.4 0.2 0 0 0 0-0.5 0.2-0.9 0.5 0 0 0 0-0.2 0.1-0.4 0.2-0.1 0-0.1 0-0.2 0.1-0.4 0.2 0 0.1 0 0.1-0.2 0.1-0.4 0.2-0.1 0-0.1 0-0.2 0.1-0.4 0.2 0 0.1 0 0.1-0.2 0.1-0.4 0.2 0 0-0.1 0-0.2 0.2-0.4 0.3 0 0 0 0-0.2 0.1-0.4 0.3 0 0 0 0-0.2 0.1-0.4 0.3 0 0 0 0-0.2 0.1-0.4 0.2 0 0-0.1 0.1-0.2 0.1-0.3 0.2-0.1 0-0.1 0.1-0.2 0.1-0.4 0.2 0 0 0 0.1-0.2 0.1-0.4 0.2 0 0 0 0.1-0.2 0.1-0.4 0.2 0 0.1 0 0.1-0.2 0.1-0.4 0.3 0 0 0 0-0.2 0.1-0.4 0.3 0 0 0 0-0.4 0.3-0.8 0.6 0 0.1 0 0.1-0.2 0.1-0.4 0.3 0 0 0 0-0.2 0.2-0.3 0.3-0.1 0-0.1 0.1-0.2 0.1-0.3 0.3 0 0-0.1 0-0.1 0.2-0.3 0.3 0 0.1 0 0.1-0.2 0.1-0.4 0.3 0 0 0 0-0.2 0.2-0.3 0.4-0.1 0-0.1 0-0.1 0.2-0.3 0.4 0 0 0 0-0.2 0.2-0.4 0.3 0 0 0 0.1-0.1 0.1-0.3 0.3 0 0 0 0-0.2 0.2-0.3 0.4-0.1 0-0.1 0-0.1 0.2-0.3 0.4 0 0 0 0-0.2 0.2-0.3 0.4 0 0-0.1 0zm38.4-12.4q-0.1 0-0.1-0.1 0.9 1 1.7 2.1c2.6 3.4 4.8 8.1 6.3 13.6 4.5-0.8 8.5-1.9 11.7-3.2q0 0 0 0-0.1-0.2-0.3-0.4 0 0 0 0-0.2-0.2-0.3-0.4-0.1 0-0.1 0-0.1-0.2-0.3-0.4 0 0 0 0-0.2-0.2-0.3-0.3-0.1-0.1-0.1-0.1-0.1-0.1-0.3-0.3 0 0 0 0-0.2-0.2-0.3-0.4-0.1 0-0.1 0-0.1-0.2-0.3-0.4 0 0-0.1 0-0.1-0.2-0.3-0.3 0 0 0-0.1-0.2-0.1-0.4-0.3 0 0 0 0-0.2-0.2-0.3-0.3-0.1-0.1-0.1-0.1-0.2-0.1-0.3-0.3 0 0-0.1 0-0.1-0.2-0.3-0.3 0 0 0-0.1-0.4-0.3-0.8-0.6 0 0 0 0-0.2-0.2-0.4-0.3 0 0 0 0-0.2-0.2-0.4-0.3 0 0 0-0.1-0.2-0.1-0.4-0.2 0-0.1-0.1-0.1-0.1-0.1-0.3-0.2 0-0.1-0.1-0.1-0.1-0.1-0.3-0.2-0.1-0.1-0.1-0.1-0.2-0.1-0.4-0.2 0-0.1 0-0.1-0.2-0.1-0.4-0.2 0 0 0 0-0.2-0.2-0.4-0.3 0 0 0 0-0.2-0.2-0.4-0.3 0 0-0.1 0-0.2-0.1-0.4-0.3 0 0 0 0-0.2-0.1-0.4-0.2 0 0 0-0.1-0.2-0.1-0.4-0.2-0.1 0-0.1 0-0.2-0.1-0.4-0.2 0 0 0-0.1-0.2-0.1-0.4-0.2-0.1 0-0.1 0-0.2-0.1-0.4-0.2 0 0 0 0-0.4-0.3-0.9-0.5 0 0 0 0-0.2-0.1-0.4-0.2-0.1 0-0.1 0-0.2-0.1-0.4-0.2 0 0-0.1 0-0.2-0.1-0.4-0.2 0 0 0 0-0.2-0.1-0.4-0.2-0.1 0-0.1 0-0.2-0.1-0.4-0.2 0 0-0.1 0-0.2-0.1-0.4-0.2 0 0 0 0-0.3-0.1-0.5-0.2 0 0 0 0-0.2-0.1-0.5-0.2 0 0 0 0-0.2-0.1-0.4-0.1 0 0-0.1 0-0.2-0.1-0.4-0.2 0 0-0.1 0-0.2-0.1-0.4-0.2 0 0 0 0-0.3 0-0.5-0.1 0 0 0 0-0.3-0.1-0.5-0.1 0-0.1 0-0.1-0.3 0-0.5-0.1 0 0 0 0-0.3-0.1-0.5-0.1 0 0 0 0zm28.3 34.6c-0.4-7-2.6-13.6-6.6-19.4q-3.3 1.4-7.5 2.5-2.6 0.7-5.4 1.2 0.8 3.7 1.3 7.6 0.4 4 0.5 8.1zm-35.9-17.6c3.5 0 7-0.2 10.4-0.6q0.9-0.1 1.9-0.3c-1.5-4.9-3.4-9.1-5.7-12.1-1.5-2-3.8-4.3-6.6-5zm-10-13c-2.3 3-4.2 7.2-5.7 12.1q1 0.1 1.9 0.3c3.4 0.3 6.9 0.6 10.4 0.6v-18c-2.8 0.7-5.1 3-6.6 5zm-6.5 15.4c-1.1 4.7-1.7 9.9-1.9 15.2h15v-14.2c-3.7-0.1-7.3-0.3-10.8-0.7q-1.2-0.2-2.3-0.3zm-1.9 18.6c0.1 5.4 0.8 10.7 1.9 15.5q1.1-0.1 2.3-0.3c3.5-0.4 7.1-0.6 10.8-0.7v-14.5zm2.7 18.8c1.4 5 3.4 9.1 5.7 12.2 1.5 2 3.8 4.3 6.6 5v-18.1c-3.6 0-7.1 0.3-10.4 0.7q-1 0.1-1.9 0.2zm22.3 12.2c2.3-3.1 4.2-7.2 5.7-12.2q-1-0.1-1.9-0.2c-3.4-0.4-6.9-0.7-10.4-0.7v18.1c2.8-0.7 5.1-3 6.6-5zm6.5-15.5c1.1-4.8 1.7-10.1 1.8-15.5h-14.9v14.5c3.7 0.1 7.3 0.3 10.8 0.7q1.2 0.2 2.3 0.3zm1.8-18.9c-0.1-5.3-0.7-10.5-1.8-15.2q-1.2 0.1-2.3 0.3c-3.5 0.4-7.2 0.6-10.8 0.7v14.2zm-47.8-19.4c-3.9 5.7-6.2 12.4-6.5 19.4h17.6q0.1-4.1 0.6-8.1 0.4-4 1.3-7.6-2.8-0.6-5.4-1.2-4.2-1.1-7.6-2.5zm-6.6 22.8c0.3 7.1 2.6 13.9 6.6 19.8q3.3-1.5 7.6-2.6 2.5-0.6 5.4-1.1-0.9-3.8-1.4-7.8-0.4-4.1-0.5-8.3zm68.8 19.8c4-5.9 6.3-12.7 6.5-19.8h-17.6q-0.1 4.2-0.6 8.3-0.5 4-1.3 7.8 2.8 0.5 5.4 1.1 4.2 1.1 7.6 2.6z"/>
	</g>
</svg>